<svg width="100" height="30" viewBox="0 0 100 30" fill="none" xmlns="http://www.w3.org/2000/svg">
<path d="M32.16 23.0001V5.36006H38.664C40.76 5.36006 42.432 5.83206 43.68 6.77606C44.928 7.72006 45.552 9.15206 45.552 11.0721V11.4801C45.552 12.7921 45.248 13.8721 44.64 14.7201C44.048 15.5681 43.224 16.1921 42.168 16.5921L46.848 23.0001H42.864L38.736 17.1441H38.664H35.568V23.0001H32.16ZM39.024 8.26406H35.568V14.3841H39.024C39.952 14.3841 40.696 14.1041 41.256 13.5441C41.816 12.9841 42.096 12.2481 42.096 11.3361C42.096 10.4241 41.816 9.68806 41.256 9.12806C40.696 8.55206 39.952 8.26406 39.024 8.26406ZM52.8654 23.3361C51.4254 23.3361 50.2734 22.9681 49.4094 22.2321C48.5614 21.4961 48.1374 20.4641 48.1374 19.1361C48.1374 17.7121 48.6494 16.6641 49.6734 15.9921C50.7134 15.3041 52.1054 14.9601 53.8494 14.9601H56.5134V14.8401C56.5134 13.3521 55.7614 12.6081 54.2574 12.6081C53.8574 12.6081 53.3774 12.6161 52.8174 12.6321C52.2574 12.6481 51.6894 12.6721 51.1134 12.7041C50.5534 12.7201 50.0494 12.7441 49.6014 12.7761V9.94406C50.1454 9.89606 50.7934 9.85606 51.5454 9.82406C52.3134 9.79206 53.0174 9.77606 53.6574 9.77606C55.6574 9.77606 57.1614 10.1841 58.1694 11.0001C59.1934 11.8001 59.7054 13.1041 59.7054 14.9121V23.0001H57.0654V20.5041C56.4734 22.3921 55.0734 23.3361 52.8654 23.3361ZM53.8014 20.9601C54.2494 20.9601 54.6734 20.8801 55.0734 20.7201C55.4734 20.5441 55.8014 20.2561 56.0574 19.8561C56.3294 19.4401 56.4814 18.8801 56.5134 18.1761V16.9521H53.8014C53.0334 16.9521 52.4414 17.1441 52.0254 17.5281C51.6254 17.8961 51.4254 18.3761 51.4254 18.9681C51.4254 19.5761 51.6254 20.0641 52.0254 20.4321C52.4414 20.7841 53.0334 20.9601 53.8014 20.9601ZM69.0628 23.4561C67.9268 23.4561 66.9428 23.2641 66.1108 22.8801C65.2788 22.4961 64.5908 21.9841 64.0468 21.3441C63.5028 20.7041 63.0948 19.9841 62.8228 19.1841C62.5508 18.3841 62.4148 17.5681 62.4148 16.7361V16.2801C62.4148 15.4161 62.5508 14.5841 62.8228 13.7841C63.1108 12.9681 63.5268 12.2401 64.0708 11.6001C64.6308 10.9601 65.3188 10.4561 66.1348 10.0881C66.9668 9.70406 67.9348 9.51206 69.0388 9.51206C70.1748 9.51206 71.1828 9.73606 72.0628 10.1841C72.9588 10.6161 73.6708 11.2241 74.1988 12.0081C74.7428 12.7921 75.0548 13.7041 75.1348 14.7441H71.8948C71.7988 14.0721 71.5108 13.5121 71.0308 13.0641C70.5508 12.6161 69.8868 12.3921 69.0388 12.3921C67.9188 12.3921 67.0868 12.7761 66.5428 13.5441C66.0148 14.3121 65.7508 15.2961 65.7508 16.4961C65.7508 17.6641 66.0068 18.6401 66.5188 19.4241C67.0468 20.1921 67.8948 20.5761 69.0628 20.5761C69.9268 20.5761 70.6068 20.3521 71.1028 19.9041C71.6148 19.4561 71.9188 18.8721 72.0148 18.1521H75.2548C75.1908 19.2081 74.8788 20.1361 74.3188 20.9361C73.7748 21.7361 73.0468 22.3601 72.1348 22.8081C71.2228 23.2401 70.1988 23.4561 69.0628 23.4561ZM77.9273 23.0001V5.48006H81.2633V12.1521C81.5993 11.3201 82.0953 10.6801 82.7513 10.2321C83.4073 9.78406 84.2313 9.56006 85.2233 9.56006H85.3673C86.8553 9.56006 87.9833 10.0801 88.7513 11.1201C89.5193 12.1441 89.9033 13.6241 89.9033 15.5601V23.0001H86.5673V15.2481C86.5673 14.4161 86.3273 13.7601 85.8473 13.2801C85.3833 12.8001 84.7673 12.5601 83.9993 12.5601C83.1673 12.5601 82.5033 12.8321 82.0073 13.3761C81.5113 13.9041 81.2633 14.6001 81.2633 15.4641V23.0001H77.9273ZM95.3378 8.40806C94.6818 8.40806 94.1938 8.24006 93.8738 7.90406C93.5698 7.55206 93.4178 7.11206 93.4178 6.58406C93.4178 6.05606 93.5698 5.62406 93.8738 5.28806C94.1938 4.95206 94.6818 4.78406 95.3378 4.78406C95.9778 4.78406 96.4498 4.95206 96.7538 5.28806C97.0738 5.62406 97.2338 6.05606 97.2338 6.58406C97.2338 7.11206 97.0738 7.55206 96.7538 7.90406C96.4498 8.24006 95.9778 8.40806 95.3378 8.40806ZM94.1138 23.0001V12.4641H92.2898V9.96806H97.4498V23.0001H94.1138Z" fill="#293145"/>
<path d="M6 18C9.31371 18 12 15.3137 12 12C12 8.68629 9.31371 6 6 6C2.68629 6 0 8.68629 0 12C0 15.3137 2.68629 18 6 18Z" fill="#0F9AFE"/>
<path d="M12 24C15.3137 24 18 21.3137 18 18C18 14.6863 15.3137 12 12 12C8.68629 12 6 14.6863 6 18C6 21.3137 8.68629 24 12 24Z" fill="#293145"/>
</svg>
